####
#
# OBJ File Generated by Meshlab
#
####
# Object drone_parcours.obj
#
# Vertices: 40
# Faces: 80
#
####
vn -0.410983 0.410983 0.813748
v 2.550000 4.600000 0.990000
vn 0.640735 -0.640735 0.422986
v 2.600000 0.000000 0.990000
vn 0.640762 0.640762 0.422904
v 2.600000 5.600000 0.990000
vn 0.410983 -0.410983 0.813748
v 0.050000 1.000000 0.990000
vn -0.640735 0.640735 0.422986
v 0.000000 5.600000 0.990000
vn -0.640762 -0.640762 0.422904
v 0.000000 0.000000 0.990000
vn -0.640762 -0.640762 0.422903
v 0.700000 2.350000 0.990000
vn 0.640763 -0.640763 0.422903
v 0.750000 2.350000 0.990000
vn -0.640763 0.640763 0.422903
v 0.700000 4.600000 0.990000
vn 0.410984 -0.410984 0.813747
v 0.750000 4.550000 0.990000
vn -0.410984 -0.410984 0.813747
v 2.550000 4.550000 0.990000
vn -0.410983 0.410983 0.813748
v 2.550000 0.050000 0.990000
vn 0.410984 0.410984 0.813747
v 0.050000 0.050000 0.990000
vn 0.640762 0.640762 0.422903
v 1.900000 3.250000 0.990000
vn -0.640763 0.640763 0.422903
v 1.850000 3.250000 0.990000
vn 0.640763 -0.640763 0.422903
v 1.900000 1.000000 0.990000
vn -0.410984 0.410984 0.813747
v 1.850000 1.050000 0.990000
vn 0.410984 0.410984 0.813747
v 0.050000 1.050000 0.990000
vn 0.410983 -0.410983 0.813748
v 0.050000 5.550000 0.990000
vn -0.410984 -0.410984 0.813747
v 2.550000 5.550000 0.990000
vn -0.410983 -0.410983 -0.813748
v 2.550000 4.550000 0.000000
vn 0.640763 0.640763 -0.422902
v 2.600000 5.600000 0.000000
vn 0.640762 -0.640762 -0.422905
v 2.600000 0.000000 0.000000
vn 0.410983 0.410983 -0.813748
v 0.050000 1.050000 0.000000
vn -0.640763 -0.640763 -0.422902
v 0.000000 0.000000 0.000000
vn -0.640762 0.640762 -0.422905
v 0.000000 5.600000 0.000000
vn 0.640762 -0.640762 -0.422903
v 0.750000 2.350000 0.000000
vn -0.640762 -0.640762 -0.422903
v 0.700000 2.350000 0.000000
vn 0.410984 -0.410984 -0.813747
v 0.750000 4.550000 0.000000
vn -0.640762 0.640762 -0.422903
v 0.700000 4.600000 0.000000
vn -0.410984 0.410984 -0.813747
v 2.550000 4.600000 0.000000
vn -0.410983 -0.410983 -0.813748
v 2.550000 5.550000 0.000000
vn 0.410984 -0.410984 -0.813747
v 0.050000 5.550000 0.000000
vn -0.640762 0.640762 -0.422903
v 1.850000 3.250000 0.000000
vn 0.640762 0.640762 -0.422903
v 1.900000 3.250000 0.000000
vn -0.410984 0.410984 -0.813747
v 1.850000 1.050000 0.000000
vn 0.640762 -0.640762 -0.422903
v 1.900000 1.000000 0.000000
vn 0.410984 -0.410984 -0.813747
v 0.050000 1.000000 0.000000
vn 0.410983 0.410983 -0.813748
v 0.050000 0.050000 0.000000
vn -0.410984 0.410984 -0.813747
v 2.550000 0.050000 0.000000
# 40 vertices, 0 vertices normals

f 1//1 2//2 3//3
f 4//4 5//5 6//6
f 7//7 8//8 9//9
f 9//9 8//8 10//10
f 9//9 10//10 1//1
f 1//1 10//10 11//11
f 1//1 11//11 2//2
f 2//2 11//11 12//12
f 2//2 12//12 6//6
f 6//6 12//12 13//13
f 6//6 13//13 4//4
f 14//14 15//15 16//16
f 16//16 15//15 17//17
f 16//16 17//17 4//4
f 4//4 17//17 18//18
f 4//4 18//18 5//5
f 5//5 18//18 19//19
f 5//5 19//19 3//3
f 3//3 19//19 20//20
f 3//3 20//20 1//1
f 21//21 22//22 23//23
f 24//24 25//25 26//26
f 27//27 28//28 29//29
f 29//29 28//28 30//30
f 29//29 30//30 21//21
f 21//21 30//30 31//31
f 21//21 31//31 22//22
f 22//22 31//31 32//32
f 22//22 32//32 26//26
f 26//26 32//32 33//33
f 26//26 33//33 24//24
f 34//34 35//35 36//36
f 36//36 35//35 37//37
f 36//36 37//37 24//24
f 24//24 37//37 38//38
f 24//24 38//38 25//25
f 25//25 38//38 39//39
f 25//25 39//39 23//23
f 23//23 39//39 40//40
f 23//23 40//40 21//21
f 2//2 6//6 23//23
f 23//23 6//6 25//25
f 3//3 2//2 22//22
f 22//22 2//2 23//23
f 5//5 3//3 26//26
f 26//26 3//3 22//22
f 6//6 5//5 25//25
f 25//25 5//5 26//26
f 13//13 12//12 39//39
f 39//39 12//12 40//40
f 12//12 11//11 40//40
f 40//40 11//11 21//21
f 11//11 10//10 21//21
f 21//21 10//10 29//29
f 10//10 8//8 29//29
f 29//29 8//8 27//27
f 8//8 7//7 27//27
f 27//27 7//7 28//28
f 7//7 9//9 28//28
f 28//28 9//9 30//30
f 9//9 1//1 30//30
f 30//30 1//1 31//31
f 1//1 20//20 31//31
f 31//31 20//20 32//32
f 20//20 19//19 32//32
f 32//32 19//19 33//33
f 19//19 18//18 33//33
f 33//33 18//18 24//24
f 18//18 17//17 24//24
f 24//24 17//17 36//36
f 17//17 15//15 36//36
f 36//36 15//15 34//34
f 15//15 14//14 34//34
f 34//34 14//14 35//35
f 14//14 16//16 35//35
f 35//35 16//16 37//37
f 16//16 4//4 37//37
f 37//37 4//4 38//38
f 4//4 13//13 38//38
f 38//38 13//13 39//39
# 80 faces, 0 coords texture

# End of File
