####
#
# OBJ File Generated by Meshlab
#
####
# Object Parcour.obj
#
# Vertices: 69
# Faces: 148
#
####
vn 0.577350 0.577350 0.577350
v 2.000000 0.050000 2.050000
vn 0.707107 -0.707107 -0.000000
v 2.000000 0.000000 2.050000
vn 0.904534 0.301511 0.301512
v 2.000000 0.050000 0.050000
vn 0.577351 -0.577350 -0.577350
v 2.000000 0.000000 0.000000
vn 0.904534 -0.301511 0.301511
v 2.000000 4.950000 0.050000
vn 0.577350 0.577350 -0.577350
v 2.000000 5.000000 0.000000
vn 0.577350 -0.577350 0.577350
v 2.000000 4.950000 2.050000
vn 0.707107 0.707107 0.000000
v 2.000000 5.000000 2.050000
vn -0.904534 -0.301511 0.301511
v 0.000000 2.475000 0.050000
vn -0.904534 0.301511 0.301511
v 0.000000 0.050000 0.050000
vn 0.301511 -0.301511 0.904534
v 1.000000 2.475000 0.050000
vn 0.301511 0.301511 0.904534
v 1.000000 2.525000 0.050000
vn -0.904534 0.301511 0.301511
v 0.000000 2.525000 0.050000
vn -0.904534 -0.301511 0.301511
v 0.000000 4.950000 0.050000
vn -0.707107 0.707107 -0.000000
v 0.000000 5.000000 2.050000
vn -0.577337 0.577357 -0.577357
v 0.000000 5.000000 -0.000000
vn -0.577350 -0.577350 -0.577350
v 0.000000 0.000000 -0.000000
vn -0.707101 -0.707113 -0.000000
v -0.000000 0.000000 2.050000
vn -0.577350 0.577350 0.577350
v -0.000000 0.050000 2.050000
vn -0.707107 -0.707107 -0.000000
v 0.000000 4.950000 2.050000
vn -0.577350 0.577351 0.577350
v -0.000000 2.525000 2.050000
vn -0.577350 -0.577350 0.577350
v -0.000000 2.475000 2.050000
vn 0.577350 0.577350 -0.577350
v 2.000000 2.525000 1.050000
vn 0.577350 0.577350 0.577350
v 2.000000 2.525000 2.050000
vn 0.577350 -0.577350 -0.577350
v 2.000000 2.475000 1.050000
vn 0.577350 -0.577350 0.577350
v 2.000000 2.475000 2.050000
vn 0.301511 0.904534 -0.301511
v 1.000000 2.525000 1.050000
vn 0.301511 -0.904534 -0.301511
v 1.000000 2.475000 1.050000
vn 0.904534 0.301511 0.301511
v 2.000000 0.050000 2.100000
vn 0.904534 -0.301511 0.301511
v 2.000000 4.950000 2.100000
vn 0.301511 -0.301511 0.904534
v 1.050000 3.687500 2.100000
vn 0.577350 -0.577350 0.577350
v 1.050000 4.950000 2.100000
vn -0.577350 -0.577350 0.577350
v 0.950000 2.475000 2.100000
vn -0.904534 -0.301511 0.301511
v -0.000000 2.475000 2.100000
vn -0.301511 -0.301511 0.904534
v 0.950000 1.475000 2.100000
vn -0.904534 0.301511 0.301511
v -0.000000 0.050000 2.100000
vn 0.301511 -0.301511 0.904534
v 1.000000 1.475000 2.100000
vn 0.301511 0.301511 0.904534
v 1.000000 2.525000 2.100000
vn -0.904534 0.301511 0.301511
v -0.000000 2.525000 2.100000
vn -0.904534 -0.301511 0.301511
v 0.000000 3.687500 2.100000
vn 0.904534 -0.301511 0.301511
v 2.000000 2.475000 3.150000
vn 0.904534 -0.301511 -0.301511
v 2.000000 2.475000 4.100000
vn -0.301511 -0.904534 0.301511
v 0.950000 2.475000 3.150000
vn -0.904534 -0.301511 -0.301511
v -0.000000 2.475000 4.100000
vn 0.301511 -0.904534 0.301511
v 1.050000 4.950000 3.100000
vn 0.904534 -0.301512 -0.301511
v 2.000000 4.950000 4.100000
vn -0.301511 -0.904534 0.301511
v 1.000000 4.950000 3.100000
vn -0.904534 -0.301511 -0.301511
v 0.000000 4.950000 4.100000
vn -0.301511 -0.301511 -0.904534
v 1.000000 4.950000 2.050000
vn -0.577338 0.577357 0.577357
v 0.000000 5.000000 4.150000
vn 0.577337 0.577357 0.577357
v 2.000000 5.000000 4.150000
vn -0.904534 0.301511 -0.301511
v -0.000000 2.525000 4.100000
vn -0.577350 -0.577350 0.577350
v 0.000000 3.687500 3.100000
vn -0.577350 0.577350 0.577350
v 0.000000 3.737500 3.100000
vn -0.577350 0.577350 -0.577350
v 0.000000 3.737500 2.050000
vn -0.577350 -0.577350 0.577350
v -0.000000 0.000000 4.150000
vn -0.904534 0.301511 -0.301511
v -0.000000 0.050000 4.100000
vn 0.577350 -0.577350 0.577350
v 2.000000 0.000000 4.150000
vn 0.577350 -0.577350 0.577350
v 2.000000 1.475000 3.150000
vn 0.577350 -0.577350 -0.577350
v 2.000000 1.475000 3.100000
vn 0.577350 0.577350 -0.577350
v 2.000000 2.525000 3.100000
vn 0.904534 0.301511 -0.301511
v 2.000000 2.525000 4.100000
vn 0.904534 0.301511 -0.301511
v 2.000000 0.050000 4.100000
vn -0.301511 0.301511 -0.904534
v 1.000000 3.737500 2.050000
vn 0.301511 0.904534 -0.301511
v 1.000000 2.525000 3.100000
vn -0.301511 0.301511 0.904534
v 1.000000 3.737500 3.100000
vn 0.301511 -0.904534 -0.301511
v 1.000000 1.475000 3.100000
vn 0.577350 -0.577350 0.577350
v 1.050000 3.687500 3.100000
vn -0.577350 -0.577350 0.577350
v 0.950000 1.475000 3.150000
# 69 vertices, 0 vertices normals

f 1//1 2//2 3//3
f 3//3 2//2 4//4
f 3//3 4//4 5//5
f 5//5 4//4 6//6
f 5//5 6//6 7//7
f 7//7 6//6 8//8
f 9//9 10//10 11//11
f 11//11 10//10 3//3
f 11//11 3//3 12//12
f 12//12 3//3 5//5
f 12//12 5//5 13//13
f 13//13 5//5 14//14
f 15//15 8//8 16//16
f 16//16 8//8 6//6
f 17//17 18//18 19//19
f 19//19 10//10 17//17
f 17//17 10//10 9//9
f 17//17 9//9 16//16
f 20//20 15//15 14//14
f 14//14 15//15 16//16
f 14//14 16//16 13//13
f 13//13 16//16 9//9
f 13//13 9//9 21//21
f 21//21 9//9 22//22
f 2//2 18//18 4//4
f 4//4 18//18 17//17
f 23//23 24//24 25//25
f 25//25 24//24 26//26
f 4//4 17//17 6//6
f 6//6 17//17 16//16
f 19//19 1//1 10//10
f 10//10 1//1 3//3
f 1//1 19//19 2//2
f 2//2 19//19 18//18
f 12//12 13//13 27//27
f 27//27 13//13 21//21
f 27//27 21//21 23//23
f 23//23 21//21 24//24
f 25//25 26//26 28//28
f 28//28 26//26 22//22
f 28//28 22//22 11//11
f 11//11 22//22 9//9
f 22//22 26//26 21//21
f 21//21 26//26 24//24
f 20//20 14//14 7//7
f 7//7 14//14 5//5
f 20//20 7//7 15//15
f 15//15 7//7 8//8
f 11//11 12//12 28//28
f 28//28 12//12 27//27
f 28//28 27//27 25//25
f 25//25 27//27 23//23
f 29//29 30//30 31//31
f 31//31 30//30 32//32
f 33//33 34//34 35//35
f 35//35 34//34 36//36
f 35//35 36//36 37//37
f 37//37 36//36 29//29
f 37//37 29//29 38//38
f 38//38 29//29 31//31
f 38//38 31//31 39//39
f 39//39 31//31 40//40
f 41//41 42//42 43//43
f 43//43 42//42 44//44
f 43//43 44//44 33//33
f 33//33 44//44 34//34
f 32//32 30//30 45//45
f 45//45 30//30 46//46
f 45//45 46//46 47//47
f 47//47 46//46 48//48
f 47//47 48//48 49//49
f 49//49 48//48 20//20
f 50//50 51//51 15//15
f 15//15 51//51 8//8
f 15//15 20//20 50//50
f 50//50 20//20 48//48
f 44//44 52//52 34//34
f 34//34 52//52 39//39
f 53//53 54//54 40//40
f 40//40 54//54 55//55
f 40//40 55//55 39//39
f 39//39 55//55 18//18
f 39//39 18//18 34//34
f 48//48 52//52 50//50
f 50//50 52//52 44//44
f 50//50 44//44 56//56
f 56//56 44//44 57//57
f 56//56 57//57 18//18
f 18//18 57//57 36//36
f 18//18 36//36 34//34
f 58//58 56//56 2//2
f 2//2 56//56 18//18
f 42//42 51//51 58//58
f 59//59 60//60 41//41
f 41//41 60//60 61//61
f 41//41 61//61 42//42
f 42//42 61//61 62//62
f 42//42 62//62 51//51
f 51//51 62//62 46//46
f 51//51 46//46 8//8
f 8//8 46//46 30//30
f 8//8 30//30 2//2
f 2//2 30//30 29//29
f 2//2 29//29 58//58
f 58//58 29//29 63//63
f 58//58 63//63 42//42
f 20//20 15//15 49//49
f 49//49 15//15 8//8
f 49//49 8//8 64//64
f 64//64 8//8 2//2
f 64//64 2//2 55//55
f 55//55 2//2 18//18
f 57//57 63//63 36//36
f 36//36 63//63 29//29
f 38//38 39//39 65//65
f 65//65 39//39 52//52
f 65//65 52//52 61//61
f 61//61 52//52 62//62
f 66//66 47//47 64//64
f 64//64 47//47 49//49
f 54//54 66//66 55//55
f 55//55 66//66 64//64
f 65//65 67//67 38//38
f 38//38 67//67 37//37
f 61//61 60//60 65//65
f 65//65 60//60 67//67
f 45//45 68//68 32//32
f 32//32 68//68 31//31
f 54//54 53//53 66//66
f 66//66 53//53 68//68
f 66//66 68//68 47//47
f 47//47 68//68 45//45
f 68//68 53//53 31//31
f 31//31 53//53 40//40
f 69//69 59//59 43//43
f 43//43 59//59 41//41
f 35//35 69//69 33//33
f 33//33 69//69 43//43
f 60//60 59//59 67//67
f 67//67 59//59 69//69
f 67//67 69//69 37//37
f 37//37 69//69 35//35
f 42//42 63//63 44//44
f 44//44 63//63 57//57
f 46//46 62//62 48//48
f 48//48 62//62 52//52
f 56//56 58//58 50//50
f 50//50 58//58 51//51
# 148 faces, 0 coords texture

# End of File
